<?xml version="1.0" encoding="utf-8"?>
<svg version="1.1" xmlns:xlink="http://www.w3.org/1999/xlink" width="20px" height="20px" xmlns="http://www.w3.org/2000/svg">
  <g transform="matrix(1 0 0 1 -1363 -2862 )">
    <path d="M 1373 2862  C 1378.6 2862  1383 2866.4  1383 2872  C 1383 2877.6  1378.6 2882  1373 2882  C 1367.4 2882  1363 2877.6  1363 2872  C 1363 2866.4  1367.4 2862  1373 2862  Z " fill-rule="nonzero" fill="#ffffff" stroke="none" fill-opacity="0" />
    <path d="M 1373 2862.5  C 1378.32 2862.5  1382.5 2866.68  1382.5 2872  C 1382.5 2877.32  1378.32 2881.5  1373 2881.5  C 1367.68 2881.5  1363.5 2877.32  1363.5 2872  C 1363.5 2866.68  1367.68 2862.5  1373 2862.5  Z " stroke-width="1" stroke="#108ee9" fill="none" />
  </g>
</svg>