<?xml version="1.0" encoding="utf-8"?>
<svg version="1.1" xmlns:xlink="http://www.w3.org/1999/xlink" width="20px" height="20px" xmlns="http://www.w3.org/2000/svg">
  <g transform="matrix(1 0 0 1 -1363 -2906 )">
    <path d="M 1373 2906  C 1378.6 2906  1383 2910.4  1383 2916  C 1383 2921.6  1378.6 2926  1373 2926  C 1367.4 2926  1363 2921.6  1363 2916  C 1363 2910.4  1367.4 2906  1373 2906  Z " fill-rule="nonzero" fill="#ffffff" stroke="none" fill-opacity="0" />
    <path d="M 1373 2906.5  C 1378.32 2906.5  1382.5 2910.68  1382.5 2916  C 1382.5 2921.32  1378.32 2925.5  1373 2925.5  C 1367.68 2925.5  1363.5 2921.32  1363.5 2916  C 1363.5 2910.68  1367.68 2906.5  1373 2906.5  Z " stroke-width="1" stroke="#cccccc" fill="none" />
  </g>
</svg>