<?xml version="1.0" encoding="utf-8"?>
<svg version="1.1" xmlns:xlink="http://www.w3.org/1999/xlink" width="114px" height="29px" xmlns="http://www.w3.org/2000/svg">
  <g transform="matrix(1 0 0 1 -1570 -3292 )">
    <path d="M 112.5 22  L 112.5 6  C 112.5 2.92  110.08 0.5  107 0.5  L 0 0.5  L 0 27.5  L 107 27.5  C 110.08 27.5  112.5 25.08  112.5 22  Z " fill-rule="nonzero" fill="#ffffff" stroke="none" transform="matrix(1 0 0 1 1570 3292 )" />
    <path d="M 0 27.5  L 107 27.5  C 110.08 27.5  112.5 25.08  112.5 22  L 112.5 6  C 112.5 2.92  110.08 0.5  107 0.5  L 0 0.5  " stroke-width="1" stroke="#108ee9" fill="none" transform="matrix(1 0 0 1 1570 3292 )" />
  </g>
</svg>