<?xml version="1.0" encoding="utf-8"?>
<svg version="1.1" xmlns:xlink="http://www.w3.org/1999/xlink" width="170px" height="29px" xmlns="http://www.w3.org/2000/svg">
  <g transform="matrix(1 0 0 1 -1514 -3348 )">
    <path d="M 168.5 22  L 168.5 6  C 168.5 2.92  166.08 0.5  163 0.5  L 0 0.5  L 0 27.5  L 163 27.5  C 166.08 27.5  168.5 25.08  168.5 22  Z " fill-rule="nonzero" fill="#ffffff" stroke="none" transform="matrix(1 0 0 1 1514 3348 )" />
    <path d="M 0 27.5  L 163 27.5  C 166.08 27.5  168.5 25.08  168.5 22  L 168.5 6  C 168.5 2.92  166.08 0.5  163 0.5  L 0 0.5  " stroke-width="1" stroke="#108ee9" fill="none" transform="matrix(1 0 0 1 1514 3348 )" />
  </g>
</svg>