<?xml version="1.0" encoding="utf-8"?>
<svg version="1.1" xmlns:xlink="http://www.w3.org/1999/xlink" width="86px" height="30px" xmlns="http://www.w3.org/2000/svg">
  <g transform="matrix(1 0 0 1 -1600 -3405 )">
    <path d="M 84.5 22.7857142857147  L 84.5 6.21428571428532  C 84.6238938053098 3.02428571428572  82.8035398230089 0.517857142856883  80.4867256637168 0.517857142856883  L 0 0.517857142856883  L 0 28.5  L 80.4867256637168 28.5  C 82.8035398230089 28.4821428571431  84.6238938053098 25.9757142857143  84.5 22.7857142857147  Z " fill-rule="nonzero" fill="#ffffff" stroke="none" transform="matrix(1 0 0 1 1600 3405 )" />
    <path d="M 0 28.5  L 80.4867256637168 28.5  C 82.8035398230089 28.4821428571431  84.6238938053098 25.9757142857143  84.5 22.7857142857147  L 84.5 6.21428571428532  C 84.6238938053098 3.02428571428572  82.8035398230089 0.517857142856883  80.4867256637168 0.517857142856883  L 0 0.517857142856883  " stroke-width="1" stroke="#108ee9" fill="none" transform="matrix(1 0 0 1 1600 3405 )" />
  </g>
</svg>