<?xml version="1.0" encoding="utf-8"?>
<svg version="1.1" xmlns:xlink="http://www.w3.org/1999/xlink" width="18px" height="13px" xmlns="http://www.w3.org/2000/svg">
  <g transform="matrix(1 0 0 1 -1562 -14 )">
    <path d="M 1562 14  L 1580 14  L 1580 27  L 1562 27  L 1562 14  " fill-rule="nonzero" fill="#cccccc" stroke="none" />
    <path d="M 1563 15  L 1579 15  L 1579 26  L 1563 26  L 1563 15  " fill-rule="nonzero" fill="#ffffff" stroke="none" />
    <path d="M 1572.335 17.9  C 1571.789 17.9  1571.36 17.471  1571.36 16.925  C 1571.36 16.379  1571.789 15.95  1572.335 15.95  C 1572.881 15.95  1573.31 16.379  1573.31 16.925  C 1573.31 17.471  1572.881 17.9  1572.335 17.9  " fill-rule="nonzero" fill="#cccccc" stroke="none" />
    <path d="M 1564 26  L 1564 20.5  L 1567.75 18  L 1573 21.6666666666667  L 1576 19.5  L 1579 21.6666666666667  L 1579 26  L 1564 26  " fill-rule="nonzero" fill="#169bd5" stroke="none" />
  </g>
</svg>