<?xml version="1.0" encoding="utf-8"?>
<svg version="1.1" xmlns:xlink="http://www.w3.org/1999/xlink" width="24px" height="16px" xmlns="http://www.w3.org/2000/svg">
  <g transform="matrix(1 0 0 1 -1760 -54 )">
    <path d="M 24 11  C 24 8.36  21.95 6.22  19.35 6.04  C 18.67 2.59  15.64 0  12 0  C 9.11 0  6.6 1.64  5.35 4.04  C 2.34 4.36  0 6.91  0 10  C 0 13.31  2.69 16  6 16  L 19 16  C 21.76 16  24 13.76  24 11  Z M 14 9  L 17 9  L 12 14  L 7 9  L 10 9  L 10 5  L 14 5  L 14 9  Z " fill-rule="nonzero" fill="#333333" stroke="none" transform="matrix(1 0 0 1 1760 54 )" />
  </g>
</svg>