<?xml version="1.0" encoding="utf-8"?>
<svg version="1.1" xmlns:xlink="http://www.w3.org/1999/xlink" width="20px" height="20px" xmlns="http://www.w3.org/2000/svg">
  <g transform="matrix(1 0 0 1 -1294 -589 )">
    <path d="M 8 5.5  L 8 14.5  L 14 10  L 8 5.5  Z M 20 10  C 20 4.48  15.52 0  10 0  C 4.48 0  0 4.48  0 10  C 0 15.52  4.48 20  10 20  C 15.52 20  20 15.52  20 10  Z M 18 10  C 18 14.41  14.41 18  10 18  C 5.59 18  2 14.41  2 10  C 2 5.59  5.59 2  10 2  C 14.41 2  18 5.59  18 10  Z " fill-rule="nonzero" fill="#333333" stroke="none" transform="matrix(1 0 0 1 1294 589 )" />
  </g>
</svg>