<?xml version="1.0" encoding="utf-8"?>
<svg version="1.1" xmlns:xlink="http://www.w3.org/1999/xlink" width="18px" height="16px" xmlns="http://www.w3.org/2000/svg">
  <g transform="matrix(1 0 0 1 -1296 -201 )">
    <path d="M 18 2  C 18 0.9  17.11 0  16 0  L 2 0  C 0.89 0  0 0.9  0 2  L 0 14  C 0 15.1  0.89 16  2 16  L 6 16  L 6 14  L 2 14  L 2 4  L 16 4  L 16 14  L 12 14  L 12 16  L 16 16  C 17.1 16  18 15.1  18 14  L 18 2  Z M 13 10  L 9 6  L 5 10  L 8 10  L 8 16  L 10 16  L 10 10  L 13 10  Z " fill-rule="nonzero" fill="#333333" stroke="none" transform="matrix(1 0 0 1 1296 201 )" />
  </g>
</svg>