<?xml version="1.0" encoding="utf-8"?>
<svg version="1.1" xmlns:xlink="http://www.w3.org/1999/xlink" width="8px" height="8px" xmlns="http://www.w3.org/2000/svg">
  <g transform="matrix(1 0 0 1 -178 -6863 )">
    <path d="M 182 6863  C 184.24 6863  186 6864.76  186 6867  C 186 6869.24  184.24 6871  182 6871  C 179.76 6871  178 6869.24  178 6867  C 178 6864.76  179.76 6863  182 6863  Z " fill-rule="nonzero" fill="#ffffff" stroke="none" />
    <path d="M 182 6863.5  C 183.96 6863.5  185.5 6865.04  185.5 6867  C 185.5 6868.96  183.96 6870.5  182 6870.5  C 180.04 6870.5  178.5 6868.96  178.5 6867  C 178.5 6865.04  180.04 6863.5  182 6863.5  Z " stroke-width="1" stroke="#333333" fill="none" />
  </g>
</svg>