<?xml version="1.0" encoding="utf-8"?>
<svg version="1.1" xmlns:xlink="http://www.w3.org/1999/xlink" width="570px" height="78px" xmlns="http://www.w3.org/2000/svg">
  <g transform="matrix(1 0 0 1 -80 -8689 )">
    <path d="M 81 8692  A 2 2 0 0 1 83 8690 L 647 8690  A 2 2 0 0 1 649 8692 L 649 8764  A 2 2 0 0 1 647 8766 L 83 8766  A 2 2 0 0 1 81 8764 L 81 8692  Z " fill-rule="nonzero" fill="#feac32" stroke="none" fill-opacity="0.2" />
    <path d="M 80.5 8692  A 2.5 2.5 0 0 1 83 8689.5 L 647 8689.5  A 2.5 2.5 0 0 1 649.5 8692 L 649.5 8764  A 2.5 2.5 0 0 1 647 8766.5 L 83 8766.5  A 2.5 2.5 0 0 1 80.5 8764 L 80.5 8692  Z " stroke-width="1" stroke="#f44f00" fill="none" stroke-opacity="0.309803921568627" />
  </g>
</svg>