<?xml version="1.0" encoding="utf-8"?>
<svg version="1.1" xmlns:xlink="http://www.w3.org/1999/xlink" width="570px" height="78px" xmlns="http://www.w3.org/2000/svg">
  <g transform="matrix(1 0 0 1 -736 -8581 )">
    <path d="M 737 8584  A 2 2 0 0 1 739 8582 L 1303 8582  A 2 2 0 0 1 1305 8584 L 1305 8656  A 2 2 0 0 1 1303 8658 L 739 8658  A 2 2 0 0 1 737 8656 L 737 8584  Z " fill-rule="nonzero" fill="#46a8e0" stroke="none" fill-opacity="0.298039215686275" />
    <path d="M 736.5 8584  A 2.5 2.5 0 0 1 739 8581.5 L 1303 8581.5  A 2.5 2.5 0 0 1 1305.5 8584 L 1305.5 8656  A 2.5 2.5 0 0 1 1303 8658.5 L 739 8658.5  A 2.5 2.5 0 0 1 736.5 8656 L 736.5 8584  Z " stroke-width="1" stroke="#46a8e0" fill="none" stroke-opacity="0.568627450980392" />
  </g>
</svg>