<?xml version="1.0" encoding="utf-8"?>
<svg version="1.1" xmlns:xlink="http://www.w3.org/1999/xlink" width="30px" height="30px" xmlns="http://www.w3.org/2000/svg">
  <g transform="matrix(1 0 0 1 -473 -11722 )">
    <path d="M 488 11722  C 496.4 11722  503 11728.6  503 11737  C 503 11745.4  496.4 11752  488 11752  C 479.6 11752  473 11745.4  473 11737  C 473 11728.6  479.6 11722  488 11722  Z " fill-rule="nonzero" fill="#ffffff" stroke="none" />
    <path d="M 488 11722.5  C 496.12 11722.5  502.5 11728.88  502.5 11737  C 502.5 11745.12  496.12 11751.5  488 11751.5  C 479.88 11751.5  473.5 11745.12  473.5 11737  C 473.5 11728.88  479.88 11722.5  488 11722.5  Z " stroke-width="1" stroke="#797979" fill="none" />
  </g>
</svg>