<?xml version="1.0" encoding="utf-8"?>
<svg version="1.1" xmlns:xlink="http://www.w3.org/1999/xlink" width="15px" height="15px" xmlns="http://www.w3.org/2000/svg">
  <g transform="matrix(1 0 0 1 -80 -461 )">
    <path d="M 87.5 461  C 91.7 461  95 464.3  95 468.5  C 95 472.7  91.7 476  87.5 476  C 83.3 476  80 472.7  80 468.5  C 80 464.3  83.3 461  87.5 461  Z " fill-rule="nonzero" fill="#ffffff" stroke="none" />
    <path d="M 87.5 461.5  C 91.42 461.5  94.5 464.58  94.5 468.5  C 94.5 472.42  91.42 475.5  87.5 475.5  C 83.58 475.5  80.5 472.42  80.5 468.5  C 80.5 464.58  83.58 461.5  87.5 461.5  Z " stroke-width="1" stroke="#a1a1a1" fill="none" />
  </g>
</svg>