<?xml version="1.0" encoding="utf-8"?>
<svg version="1.1" xmlns:xlink="http://www.w3.org/1999/xlink" width="10px" height="10px" xmlns="http://www.w3.org/2000/svg">
  <g transform="matrix(1 0 0 1 -475 -1685 )">
    <path d="M 480 1686  C 482.24 1686  484 1687.76  484 1690  C 484 1692.24  482.24 1694  480 1694  C 477.76 1694  476 1692.24  476 1690  C 476 1687.76  477.76 1686  480 1686  Z " fill-rule="nonzero" fill="#e4e4e4" stroke="none" />
    <path d="M 480 1686  C 482.24 1686  484 1687.76  484 1690  C 484 1692.24  482.24 1694  480 1694  C 477.76 1694  476 1692.24  476 1690  C 476 1687.76  477.76 1686  480 1686  Z " stroke-width="2" stroke="#ffffff" fill="none" />
  </g>
</svg>