<?xml version="1.0" encoding="utf-8"?>
<svg version="1.1" xmlns:xlink="http://www.w3.org/1999/xlink" width="100px" height="100px" xmlns="http://www.w3.org/2000/svg">
  <g transform="matrix(1 0 0 1 -324 -5145 )">
    <path d="M 374 5148  C 400.32 5148  421 5168.68  421 5195  C 421 5221.32  400.32 5242  374 5242  C 347.68 5242  327 5221.32  327 5195  C 327 5168.68  347.68 5148  374 5148  Z " fill-rule="nonzero" fill="#ffffff" stroke="none" />
    <path d="M 374 5147  C 400.88 5147  422 5168.12  422 5195  C 422 5221.88  400.88 5243  374 5243  C 347.12 5243  326 5221.88  326 5195  C 326 5168.12  347.12 5147  374 5147  Z " stroke-width="4" stroke="#12ce66" fill="none" />
  </g>
</svg>